<svg version="1.1" xmlns="http://www.w3.org/2000/svg" xmlns:xlink="http://www.w3.org/1999/xlink" width="921" height="684"><g fill="none" fill-rule="nonzero" stroke="none" stroke-width="1" stroke-linecap="butt" stroke-linejoin="miter" stroke-miterlimit="10" stroke-dasharray="" stroke-dashoffset="0" font-family="none" font-weight="none" font-size="none" text-anchor="none" style="mix-blend-mode: normal"><path d="M112.33793,-90.88766l12.07665,138.03679l-125.58169,-58.5597z" fill-opacity="0.8" fill="#8c8cb4"/><path d="M-38.14939,-29.4995l149.12826,69.53965l-134.78723,94.37904z" fill-opacity="0.8" fill="#969696"/><path d="M142.99038,172.5l-51.96152,-90l103.92305,0z" fill-opacity="0.8" fill="#8c8cb4"/><path d="M-44.12659,58.75h86.60254l-43.30127,75z" fill-opacity="0.8" fill="#7878a0"/><path d="M22.87055,99.46129l99.31691,-69.54245l10.56707,120.78219z" fill-opacity="0.8" fill="#c8c8f0"/><path d="M243.14794,34.90138l-113.50504,79.47708l-12.07665,-138.03679z" fill-opacity="0.8" fill="#b4b4b4"/><path d="M325.34936,105.5l86.60254,150l-173.20508,0z" fill-opacity="0.8" fill="#969696"/><path d="M337.54595,210.02355l-188.70212,132.13065l-20.07744,-229.48616z" fill-opacity="0.8" fill="#d2d2d2"/><path d="M-66.2589,288.92258l198.63381,-139.08489l21.13414,241.56438z" fill-opacity="0.8" fill="#b4b4b4"/><path d="M-69.90381,250l129.90381,-225l129.90381,225z" fill-opacity="0.8" fill="#c8c8f0"/><path d="M-98.92305,410l103.92305,-180l103.92305,180z" fill-opacity="0.8" fill="#b4b4b4"/><path d="M239.56406,255l-138.56406,240l-138.56406,-240z" fill-opacity="0.8" fill="#a0a0c8"/><path d="M130.7596,113.28525l184.44568,-129.15026l19.62456,224.30978z" fill-opacity="0.8" fill="#a0a0c8"/><path d="M590.33287,33.52812l-255.38633,178.82344l-27.17247,-310.58277z" fill-opacity="0.8" fill="#a0a0c8"/><path d="M149.72261,-7.4401l212.82194,-149.01953l22.64373,258.81897z" fill-opacity="0.8" fill="#d2d2d2"/><path d="M120.92151,131.25h190.52559l-95.26279,165z" fill-opacity="0.8" fill="#7878a0"/><path d="M459.0304,385.25l-294.44864,0l147.22432,-255z" fill-opacity="0.8" fill="#7878a0"/><path d="M635.14428,187.5h311.76915l-155.88457,270z" fill-opacity="0.8" fill="#c8c8f0"/><path d="M411.66713,158.47188l255.38633,-178.82344l27.17247,310.58277z" fill-opacity="0.8" fill="#7878a0"/><path d="M667.05874,-17.1572l204.07025,95.15952l-184.44568,129.15026z" fill-opacity="0.8" fill="#7878a0"/><path d="M700.77809,197.64792l170.25756,-119.21562l18.11498,207.05518z" fill-opacity="0.8" fill="#b4b4b4"/><path d="M860.37998,-37.5781l251.16338,117.11941l-227.01007,158.95416z" fill-opacity="0.8" fill="#7878a0"/><path d="M778.40708,143.5l99.59292,-172.5l99.59292,172.5z" fill-opacity="0.8" fill="#969696"/><path d="M691.74682,-6.5h173.20508l-86.60254,150z" fill-opacity="0.8" fill="#d2d2d2"/><path d="M354.81416,206l199.18584,-345l199.18584,345z" fill-opacity="0.8" fill="#c8c8f0"/><path d="M355.14428,205.5h311.76915l-155.88457,270z" fill-opacity="0.8" fill="#d2d2d2"/><path d="M531.05874,213.8428l204.07025,95.15952l-184.44568,129.15026z" fill-opacity="0.8" fill="#969696"/><path d="M818.07695,410l103.92305,-180l103.92305,180z" fill-opacity="0.8" fill="#b4b4b4"/><path d="M848.18999,266.21095l125.58169,58.5597l-113.50504,79.47708z" fill-opacity="0.8" fill="#7878a0"/><path d="M509.42632,478.5l125.57368,-217.5l125.57368,217.5z" fill-opacity="0.8" fill="#a0a0c8"/><path d="M681.39746,345l86.60254,-150l86.60254,150z" fill-opacity="0.8" fill="#a0a0c8"/><path d="M682.74682,344.5h173.20508l-86.60254,150z" fill-opacity="0.8" fill="#d2d2d2"/></g></svg>