<svg version="1" xmlns="http://www.w3.org/2000/svg" width="448" height="448" viewBox="0 0 336.000000 336.000000"><path d="M33.3 47.3c.3.8 14.1 24.5 30.8 52.8C80.7 128.4 95.7 154 97.5 157c1.8 3 5.4 9.2 8.1 13.7 2.7 4.5 9.5 16 15.2 25.7 5.7 9.7 10.7 17.4 11.2 17.1.7-.4 13.6-21.8 27.4-45.5 1.8-3 9.8-16.5 17.8-30C208 86.1 230 48.2 230 47.1c0-.8-26-1.1-98.6-1.1-81.9 0-98.5.2-98.1 1.3zM183.1 159.2c-10.1 17.2-31.8 54.1-48.2 82-16.5 27.8-30.2 51.3-30.5 52.2-.6 1.5 8.4 1.6 97.5 1.6 71.4 0 98.1-.3 98.1-1.1 0-.6-19.6-34.5-43.6-75.3-53.3-90.4-53.4-90.6-54.2-90.6-.4 0-9 14.1-19.1 31.2z"/></svg>